<?xml version="1.0" standalone="no"?>
<!DOCTYPE svg PUBLIC "-//W3C//DTD SVG 20010904//EN"
 "http://www.w3.org/TR/2001/REC-SVG-20010904/DTD/svg10.dtd">
<svg version="1.0" xmlns="http://www.w3.org/2000/svg"
 width="107.000000pt" height="107.000000pt" viewBox="0 0 107.000000 107.000000"
 preserveAspectRatio="xMidYMid meet">
<metadata>
Created by potrace 1.11, written by Peter Selinger 2001-2013
</metadata>
<g fill="#db4b8c" fill-opacity="1">
    <g transform="translate(94.090355, 684.494092)">
        <g>
            <path d="M 453.921875 0 L 24.03125 0 L 24.03125 -102.15625 L 317.703125 -480.359375 L 314.90625 -488.78125 L 35.65625 -488.78125 L 35.65625 -585.71875 L 451.109375 -585.71875 L 451.109375 -483.5625 L 157.453125 -105.359375 L 160.25 -96.953125 L 453.921875 -96.953125 Z M 453.921875 0 "/>
        </g>
    </g>
</g>
<g fill="#db4b8c" fill-opacity="1">
    <g transform="translate(290.802147, 584.974155)">
        <g>
            <path d="M 169.609375 6.953125 C 128.523438 6.953125 94.398438 -0.828125 67.234375 -16.390625 C 40.078125 -31.960938 20.316406 -52.890625 7.953125 -79.171875 L 61.953125 -144.765625 L 70.234375 -144.765625 C 79.066406 -123.554688 91.597656 -106.820312 107.828125 -94.5625 C 124.054688 -82.3125 142.882812 -76.1875 164.3125 -76.1875 C 188.375 -76.1875 206.257812 -83.195312 217.96875 -97.21875 C 229.675781 -111.25 235.53125 -134.050781 235.53125 -165.625 L 235.53125 -484.296875 L 330.921875 -484.296875 L 330.921875 -163.96875 C 330.921875 -105.445312 317.613281 -62.328125 291 -34.609375 C 264.394531 -6.898438 223.929688 6.953125 169.609375 6.953125 Z M 169.609375 6.953125 "/>
        </g>
    </g>
</g>
</svg>
