<?xml version="1.0" encoding="UTF-8" standalone="no"?>
<!DOCTYPE svg PUBLIC "-//W3C//DTD SVG 1.1//EN" "http://www.w3.org/Graphics/SVG/1.1/DTD/svg11.dtd">
<svg xmlns="http://www.w3.org/2000/svg" xmlns:xlink="http://www.w3.org/1999/xlink" viewBox="0 0 810 809.999993" preserveAspectRatio="xMidYMid meet" version="1.0" width="53.87" height="43.61"><defs><g/></defs><g fill="#db4b8c" fill-opacity="1"><g transform="translate(82.94325, 702.067736)"><g><path d="M 463.640625 0 L 24.546875 0 L 24.546875 -104.34375 L 324.5 -490.640625 L 321.640625 -499.234375 L 36.421875 -499.234375 L 36.421875 -598.265625 L 460.765625 -598.265625 L 460.765625 -493.921875 L 160.8125 -107.625 L 163.6875 -99.03125 L 463.640625 -99.03125 Z M 463.640625 0 "/></g></g></g><g fill="#5ce1e6" fill-opacity="1"><g transform="translate(284.021892, 597.634344)"><g><path d="M 173.234375 7.109375 C 131.273438 7.109375 96.421875 -0.84375 68.671875 -16.75 C 40.929688 -32.65625 20.75 -54.023438 8.125 -80.859375 L 63.265625 -147.859375 L 71.734375 -147.859375 C 80.753906 -126.203125 93.550781 -109.113281 110.125 -96.59375 C 126.707031 -84.082031 145.941406 -77.828125 167.828125 -77.828125 C 192.410156 -77.828125 210.679688 -84.988281 222.640625 -99.3125 C 234.597656 -113.632812 240.578125 -136.921875 240.578125 -169.171875 L 240.578125 -494.671875 L 338.015625 -494.671875 L 338.015625 -167.484375 C 338.015625 -107.710938 324.421875 -63.671875 297.234375 -35.359375 C 270.054688 -7.046875 228.722656 7.109375 173.234375 7.109375 Z M 173.234375 7.109375 "/></g></g></g></svg>