<?xml version="1.0" encoding="UTF-8" standalone="no"?>
<!DOCTYPE svg PUBLIC "-//W3C//DTD SVG 1.1//EN" "http://www.w3.org/Graphics/SVG/1.1/DTD/svg11.dtd">
<!-- <svg version="1.1" xmlns="http://www.w3.org/2000/svg" xmlns:xlink="http://www.w3.org/1999/xlink" preserveAspectRatio="xMidYMid meet" viewBox="344.5639097744361 330.27819548872174 111.73684210526318 91.21804511278197" width="53.87" height="43.61"><defs><path d="M453.3 331.28L453.3 359.85L388.64 418.5L388.64 388.42L453.3 331.28Z" id="aFZf6T5ED"></path><linearGradient id="gradientb2ThqnP5Op" gradientUnits="userSpaceOnUse" x1="420.97" y1="331.28" x2="420.97" y2="418.5"><stop style="stop-color: #06b6d4;stop-opacity: 1" offset="0%"></stop><stop style="stop-color: #67e8f9;stop-opacity: 1" offset="100%"></stop></linearGradient><path d="M410.23 331.28L410.23 359.85L345.56 418.5L345.56 388.42L410.23 331.28Z" id="a9fehgwfM"></path><linearGradient id="gradientk1wNV9Ostb" gradientUnits="userSpaceOnUse" x1="377.89" y1="331.28" x2="377.89" y2="418.5"><stop style="stop-color: #06b6d4;stop-opacity: 1" offset="0%"></stop><stop style="stop-color: #67e8f9;stop-opacity: 1" offset="100%"></stop></linearGradient></defs><g><g><use xlink:href="#aFZf6T5ED" opacity="1" fill="url(#gradientb2ThqnP5Op)"></use></g><g><use xlink:href="#a9fehgwfM" opacity="1" fill="url(#gradientk1wNV9Ostb)"></use></g></g></svg> -->
<!-- <svg xmlns="http://www.w3.org/2000/svg" xmlns:xlink="http://www.w3.org/1999/xlink" viewBox="0 0 810 809.999993" preserveAspectRatio="xMidYMid meet" version="1.0" width="53.87" height="43.61"><defs><g/></defs><g fill="#ff8000" fill-opacity="1"><g transform="translate(94.090355, 684.494092)"><g><path d="M 453.921875 0 L 24.03125 0 L 24.03125 -102.15625 L 317.703125 -480.359375 L 314.90625 -488.78125 L 35.65625 -488.78125 L 35.65625 -585.71875 L 451.109375 -585.71875 L 451.109375 -483.5625 L 157.453125 -105.359375 L 160.25 -96.953125 L 453.921875 -96.953125 Z M 453.921875 0 "/></g></g></g><g fill="#47c7fc" fill-opacity="1"><g transform="translate(292.441806, 584.514339)"><g><path d="M 169.609375 6.953125 C 128.523438 6.953125 94.398438 -0.828125 67.234375 -16.390625 C 40.078125 -31.960938 20.316406 -52.890625 7.953125 -79.171875 L 61.953125 -144.765625 L 70.234375 -144.765625 C 79.066406 -123.554688 91.597656 -106.820312 107.828125 -94.5625 C 124.054688 -82.3125 142.882812 -76.1875 164.3125 -76.1875 C 188.375 -76.1875 206.257812 -83.195312 217.96875 -97.21875 C 229.675781 -111.25 235.53125 -134.050781 235.53125 -165.625 L 235.53125 -484.296875 L 330.921875 -484.296875 L 330.921875 -163.96875 C 330.921875 -105.445312 317.613281 -62.328125 291 -34.609375 C 264.394531 -6.898438 223.929688 6.953125 169.609375 6.953125 Z M 169.609375 6.953125 "/></g></g></g></svg> -->
<svg xmlns="http://www.w3.org/2000/svg" xmlns:xlink="http://www.w3.org/1999/xlink" viewBox="0 0 810 809.999993" preserveAspectRatio="xMidYMid meet" version="1.0" width="53.87" height="43.61"><defs><g/></defs><g fill="#db4b8c" fill-opacity="1"><g transform="translate(94.090355, 684.494092)"><g><path d="M 453.921875 0 L 24.03125 0 L 24.03125 -102.15625 L 317.703125 -480.359375 L 314.90625 -488.78125 L 35.65625 -488.78125 L 35.65625 -585.71875 L 451.109375 -585.71875 L 451.109375 -483.5625 L 157.453125 -105.359375 L 160.25 -96.953125 L 453.921875 -96.953125 Z M 453.921875 0 "/></g></g></g><g fill="#db4b8c" fill-opacity="1"><g transform="translate(290.802147, 584.974155)"><g><path d="M 169.609375 6.953125 C 128.523438 6.953125 94.398438 -0.828125 67.234375 -16.390625 C 40.078125 -31.960938 20.316406 -52.890625 7.953125 -79.171875 L 61.953125 -144.765625 L 70.234375 -144.765625 C 79.066406 -123.554688 91.597656 -106.820312 107.828125 -94.5625 C 124.054688 -82.3125 142.882812 -76.1875 164.3125 -76.1875 C 188.375 -76.1875 206.257812 -83.195312 217.96875 -97.21875 C 229.675781 -111.25 235.53125 -134.050781 235.53125 -165.625 L 235.53125 -484.296875 L 330.921875 -484.296875 L 330.921875 -163.96875 C 330.921875 -105.445312 317.613281 -62.328125 291 -34.609375 C 264.394531 -6.898438 223.929688 6.953125 169.609375 6.953125 Z M 169.609375 6.953125 "/></g></g></g></svg>